<svg xmlns="http://www.w3.org/2000/svg" width="600" height="360" viewBox="0 0 600 360"><defs><radialGradient id="bub" cx="38%" cy="34%" r="68%"><stop offset="0%" stop-color="#ffffff" stop-opacity=".0"/><stop offset="62%" stop-color="#ffffff" stop-opacity=".05"/><stop offset="86%" stop-color="#ffffff" stop-opacity=".45"/><stop offset="100%" stop-color="#ffffff" stop-opacity=".1"/></radialGradient><linearGradient id="bg" x1="0" y1="0" x2="0.3" y2="1"><stop offset="0%" stop-color="#9fd0ff"/><stop offset="55%" stop-color="#b9ddff"/><stop offset="100%" stop-color="#d8ecff"/></linearGradient></defs><rect width="600" height="360" fill="url(#bg)"/><circle cx="336" cy="333" r="26" fill="url(#bub)" stroke="rgba(255,210,150,0.35)" stroke-width="1.5"/><circle cx="327" cy="323" r="4" fill="rgba(255,255,255,0.7)"/><circle cx="513" cy="68" r="26" fill="url(#bub)" stroke="rgba(150,255,220,0.35)" stroke-width="1.5"/><circle cx="505" cy="59" r="4" fill="rgba(255,255,255,0.7)"/><circle cx="368" cy="67" r="27" fill="url(#bub)" stroke="rgba(255,210,150,0.35)" stroke-width="1.5"/><circle cx="360" cy="57" r="4" fill="rgba(255,255,255,0.7)"/><circle cx="54" cy="291" r="21" fill="url(#bub)" stroke="rgba(255,140,200,0.35)" stroke-width="1.5"/><circle cx="48" cy="284" r="3" fill="rgba(255,255,255,0.7)"/><circle cx="238" cy="163" r="31" fill="url(#bub)" stroke="rgba(150,255,220,0.35)" stroke-width="1.5"/><circle cx="228" cy="152" r="5" fill="rgba(255,255,255,0.7)"/><circle cx="374" cy="299" r="33" fill="url(#bub)" stroke="rgba(255,140,200,0.35)" stroke-width="1.5"/><circle cx="363" cy="287" r="5" fill="rgba(255,255,255,0.7)"/><circle cx="114" cy="87" r="12" fill="url(#bub)" stroke="rgba(255,140,200,0.35)" stroke-width="1.5"/><circle cx="110" cy="83" r="2" fill="rgba(255,255,255,0.7)"/><circle cx="196" cy="213" r="38" fill="url(#bub)" stroke="rgba(150,220,255,0.35)" stroke-width="1.5"/><circle cx="184" cy="199" r="6" fill="rgba(255,255,255,0.7)"/><circle cx="384" cy="180" r="29" fill="url(#bub)" stroke="rgba(255,140,200,0.35)" stroke-width="1.5"/><circle cx="375" cy="170" r="5" fill="rgba(255,255,255,0.7)"/><circle cx="167" cy="359" r="26" fill="url(#bub)" stroke="rgba(255,140,200,0.35)" stroke-width="1.5"/><circle cx="158" cy="350" r="4" fill="rgba(255,255,255,0.7)"/><circle cx="189" cy="83" r="35" fill="url(#bub)" stroke="rgba(190,160,255,0.35)" stroke-width="1.5"/><circle cx="178" cy="70" r="6" fill="rgba(255,255,255,0.7)"/><circle cx="338" cy="39" r="11" fill="url(#bub)" stroke="rgba(255,140,200,0.35)" stroke-width="1.5"/><circle cx="334" cy="35" r="2" fill="rgba(255,255,255,0.7)"/><circle cx="232" cy="345" r="40" fill="url(#bub)" stroke="rgba(255,140,200,0.35)" stroke-width="1.5"/><circle cx="219" cy="330" r="6" fill="rgba(255,255,255,0.7)"/><circle cx="556" cy="19" r="18" fill="url(#bub)" stroke="rgba(255,210,150,0.35)" stroke-width="1.5"/><circle cx="551" cy="12" r="3" fill="rgba(255,255,255,0.7)"/><circle cx="238" cy="26" r="45" fill="url(#bub)" stroke="rgba(150,220,255,0.35)" stroke-width="1.5"/><circle cx="224" cy="10" r="7" fill="rgba(255,255,255,0.7)"/><circle cx="162" cy="31" r="38" fill="url(#bub)" stroke="rgba(190,160,255,0.35)" stroke-width="1.5"/><circle cx="150" cy="18" r="6" fill="rgba(255,255,255,0.7)"/><circle cx="246" cy="332" r="11" fill="url(#bub)" stroke="rgba(150,220,255,0.35)" stroke-width="1.5"/><circle cx="243" cy="328" r="2" fill="rgba(255,255,255,0.7)"/><circle cx="61" cy="22" r="19" fill="url(#bub)" stroke="rgba(255,210,150,0.35)" stroke-width="1.5"/><circle cx="55" cy="15" r="3" fill="rgba(255,255,255,0.7)"/><circle cx="336" cy="161" r="16" fill="url(#bub)" stroke="rgba(150,220,255,0.35)" stroke-width="1.5"/><circle cx="330" cy="155" r="3" fill="rgba(255,255,255,0.7)"/><circle cx="462" cy="151" r="45" fill="url(#bub)" stroke="rgba(255,210,150,0.35)" stroke-width="1.5"/><circle cx="447" cy="135" r="7" fill="rgba(255,255,255,0.7)"/><circle cx="252" cy="77" r="14" fill="url(#bub)" stroke="rgba(190,160,255,0.35)" stroke-width="1.5"/><circle cx="248" cy="72" r="2" fill="rgba(255,255,255,0.7)"/><circle cx="585" cy="213" r="41" fill="url(#bub)" stroke="rgba(255,140,200,0.35)" stroke-width="1.5"/><circle cx="572" cy="199" r="7" fill="rgba(255,255,255,0.7)"/><circle cx="237" cy="308" r="18" fill="url(#bub)" stroke="rgba(150,255,220,0.35)" stroke-width="1.5"/><circle cx="231" cy="301" r="3" fill="rgba(255,255,255,0.7)"/><circle cx="594" cy="77" r="14" fill="url(#bub)" stroke="rgba(190,160,255,0.35)" stroke-width="1.5"/><circle cx="589" cy="72" r="2" fill="rgba(255,255,255,0.7)"/><circle cx="366" cy="299" r="10" fill="url(#bub)" stroke="rgba(255,210,150,0.35)" stroke-width="1.5"/><circle cx="363" cy="295" r="2" fill="rgba(255,255,255,0.7)"/><circle cx="54" cy="210" r="13" fill="url(#bub)" stroke="rgba(150,220,255,0.35)" stroke-width="1.5"/><circle cx="50" cy="205" r="2" fill="rgba(255,255,255,0.7)"/><circle cx="221" cy="224" r="11" fill="url(#bub)" stroke="rgba(150,220,255,0.35)" stroke-width="1.5"/><circle cx="218" cy="220" r="2" fill="rgba(255,255,255,0.7)"/><circle cx="290" cy="207" r="45" fill="url(#bub)" stroke="rgba(255,210,150,0.35)" stroke-width="1.5"/><circle cx="276" cy="191" r="7" fill="rgba(255,255,255,0.7)"/><circle cx="92" cy="327" r="17" fill="url(#bub)" stroke="rgba(150,255,220,0.35)" stroke-width="1.5"/><circle cx="87" cy="321" r="3" fill="rgba(255,255,255,0.7)"/><circle cx="114" cy="266" r="19" fill="url(#bub)" stroke="rgba(150,255,220,0.35)" stroke-width="1.5"/><circle cx="108" cy="259" r="3" fill="rgba(255,255,255,0.7)"/><circle cx="570" cy="318" r="17" fill="url(#bub)" stroke="rgba(150,255,220,0.35)" stroke-width="1.5"/><circle cx="565" cy="311" r="3" fill="rgba(255,255,255,0.7)"/><circle cx="28" cy="39" r="13" fill="url(#bub)" stroke="rgba(150,255,220,0.35)" stroke-width="1.5"/><circle cx="24" cy="35" r="2" fill="rgba(255,255,255,0.7)"/><circle cx="143" cy="254" r="45" fill="url(#bub)" stroke="rgba(190,160,255,0.35)" stroke-width="1.5"/><circle cx="129" cy="238" r="7" fill="rgba(255,255,255,0.7)"/><circle cx="543" cy="177" r="25" fill="url(#bub)" stroke="rgba(150,255,220,0.35)" stroke-width="1.5"/><circle cx="535" cy="168" r="4" fill="rgba(255,255,255,0.7)"/><circle cx="105" cy="259" r="1.1" fill="rgba(255,255,255,0.41)"/><circle cx="336" cy="307" r="2.2" fill="rgba(255,255,255,0.44)"/><circle cx="550" cy="73" r="1.0" fill="rgba(255,255,255,0.43)"/><circle cx="267" cy="22" r="1.4" fill="rgba(255,255,255,0.48)"/><circle cx="343" cy="47" r="1.7" fill="rgba(255,255,255,0.75)"/><circle cx="588" cy="236" r="2.4" fill="rgba(255,255,255,0.59)"/><circle cx="84" cy="13" r="1.0" fill="rgba(255,255,255,0.76)"/><circle cx="421" cy="347" r="1.0" fill="rgba(255,255,255,0.62)"/><circle cx="289" cy="263" r="1.6" fill="rgba(255,255,255,0.80)"/><circle cx="45" cy="197" r="2.5" fill="rgba(255,255,255,0.75)"/><circle cx="442" cy="253" r="2.6" fill="rgba(255,255,255,0.76)"/><circle cx="211" cy="247" r="2.8" fill="rgba(255,255,255,0.74)"/><circle cx="250" cy="285" r="2.7" fill="rgba(255,255,255,0.59)"/><circle cx="375" cy="138" r="2.2" fill="rgba(255,255,255,0.60)"/><circle cx="48" cy="230" r="3.0" fill="rgba(255,255,255,0.74)"/><circle cx="437" cy="140" r="2.5" fill="rgba(255,255,255,0.59)"/><circle cx="264" cy="302" r="1.2" fill="rgba(255,255,255,0.68)"/><circle cx="18" cy="216" r="2.0" fill="rgba(255,255,255,0.42)"/><circle cx="419" cy="179" r="2.2" fill="rgba(255,255,255,0.76)"/><circle cx="153" cy="4" r="1.6" fill="rgba(255,255,255,0.64)"/><circle cx="122" cy="61" r="2.8" fill="rgba(255,255,255,0.63)"/><circle cx="265" cy="321" r="1.7" fill="rgba(255,255,255,0.63)"/><circle cx="119" cy="155" r="2.6" fill="rgba(255,255,255,0.76)"/><circle cx="528" cy="138" r="2.2" fill="rgba(255,255,255,0.46)"/><circle cx="82" cy="179" r="2.7" fill="rgba(255,255,255,0.72)"/><circle cx="427" cy="342" r="1.6" fill="rgba(255,255,255,0.38)"/><circle cx="270" cy="99" r="1.4" fill="rgba(255,255,255,0.51)"/><circle cx="375" cy="178" r="1.6" fill="rgba(255,255,255,0.72)"/><circle cx="589" cy="163" r="1.1" fill="rgba(255,255,255,0.32)"/><circle cx="524" cy="15" r="2.4" fill="rgba(255,255,255,0.59)"/><circle cx="185" cy="285" r="1.0" fill="rgba(255,255,255,0.37)"/><circle cx="273" cy="9" r="2.7" fill="rgba(255,255,255,0.42)"/><circle cx="85" cy="17" r="2.3" fill="rgba(255,255,255,0.52)"/><circle cx="378" cy="236" r="2.6" fill="rgba(255,255,255,0.78)"/><circle cx="411" cy="72" r="2.0" fill="rgba(255,255,255,0.39)"/><circle cx="6" cy="170" r="2.4" fill="rgba(255,255,255,0.39)"/><circle cx="163" cy="124" r="2.4" fill="rgba(255,255,255,0.56)"/><circle cx="369" cy="272" r="1.8" fill="rgba(255,255,255,0.70)"/><circle cx="544" cy="31" r="2.9" fill="rgba(255,255,255,0.66)"/><circle cx="78" cy="163" r="2.3" fill="rgba(255,255,255,0.75)"/></svg>