<svg xmlns="http://www.w3.org/2000/svg" width="820" height="300" viewBox="0 0 820 300"><defs><radialGradient id="glass" cx="40%" cy="34%" r="70%"><stop offset="0%" stop-color="#ffffff" stop-opacity=".10"/><stop offset="60%" stop-color="#ffffff" stop-opacity=".04"/><stop offset="88%" stop-color="#ffffff" stop-opacity=".55"/><stop offset="100%" stop-color="#ffffff" stop-opacity=".15"/></radialGradient><linearGradient id="rim" x1="0" y1="0" x2="1" y2="1"><stop offset="0%" stop-color="#ff8ad0"/><stop offset="30%" stop-color="#7fd8ff"/><stop offset="55%" stop-color="#b69cff"/><stop offset="78%" stop-color="#ffd79a"/><stop offset="100%" stop-color="#9dffd6"/></linearGradient><clipPath id="c0"><circle cx="180" cy="150" r="120"/></clipPath><clipPath id="c1"><circle cx="420" cy="150" r="120"/></clipPath><clipPath id="c2"><circle cx="660" cy="150" r="120"/></clipPath></defs><g clip-path="url(#c0)"><circle cx="120" cy="102" r="102" fill="#ff8ad0" opacity=".35"/><circle cx="246" cy="126" r="102" fill="#7fd8ff" opacity=".35"/><circle cx="168" cy="216" r="102" fill="#b69cff" opacity=".35"/><circle cx="216" cy="210" r="102" fill="#ffd79a" opacity=".35"/><circle cx="108" cy="174" r="102" fill="#9dffd6" opacity=".35"/><circle cx="180" cy="150" r="120" fill="url(#glass)"/></g><circle cx="180" cy="150" r="120" fill="none" stroke="url(#rim)" stroke-width="3" opacity=".8"/><ellipse cx="139" cy="102" rx="26" ry="17" fill="#ffffff" opacity=".75"/><g clip-path="url(#c1)"><circle cx="360" cy="102" r="102" fill="#ff8ad0" opacity=".35"/><circle cx="486" cy="126" r="102" fill="#7fd8ff" opacity=".35"/><circle cx="408" cy="216" r="102" fill="#b69cff" opacity=".35"/><circle cx="456" cy="210" r="102" fill="#ffd79a" opacity=".35"/><circle cx="348" cy="174" r="102" fill="#9dffd6" opacity=".35"/><circle cx="420" cy="150" r="120" fill="url(#glass)"/></g><circle cx="420" cy="150" r="120" fill="none" stroke="url(#rim)" stroke-width="3" opacity=".8"/><ellipse cx="379" cy="102" rx="26" ry="17" fill="#ffffff" opacity=".75"/><g clip-path="url(#c2)"><circle cx="600" cy="102" r="102" fill="#ff8ad0" opacity=".35"/><circle cx="726" cy="126" r="102" fill="#7fd8ff" opacity=".35"/><circle cx="648" cy="216" r="102" fill="#b69cff" opacity=".35"/><circle cx="696" cy="210" r="102" fill="#ffd79a" opacity=".35"/><circle cx="588" cy="174" r="102" fill="#9dffd6" opacity=".35"/><circle cx="660" cy="150" r="120" fill="url(#glass)"/></g><circle cx="660" cy="150" r="120" fill="none" stroke="url(#rim)" stroke-width="3" opacity=".8"/><ellipse cx="619" cy="102" rx="26" ry="17" fill="#ffffff" opacity=".75"/></svg>