<svg xmlns="http://www.w3.org/2000/svg" width="1600" height="900" viewBox="0 0 1600 900"><polygon points="0.0,0.0 127.5,0.0 103.8,121.8" fill="hsl(216,68%,29%)"/><polygon points="0.0,0.0 103.8,121.8 0.0,89.9" fill="hsl(216,68%,44%)"/><polygon points="127.5,0.0 255.4,0.0 324.2,94.7" fill="hsl(216,68%,36%)"/><polygon points="127.5,0.0 324.2,94.7 103.8,121.8" fill="hsl(216,68%,33%)"/><polygon points="255.4,0.0 451.7,0.0 408.2,140.0" fill="hsl(216,68%,36%)"/><polygon points="255.4,0.0 408.2,140.0 324.2,94.7" fill="hsl(216,68%,31%)"/><polygon points="451.7,0.0 538.3,0.0 627.4,135.5" fill="hsl(216,68%,36%)"/><polygon points="451.7,0.0 627.4,135.5 408.2,140.0" fill="hsl(216,68%,44%)"/><polygon points="538.3,0.0 730.9,0.0 716.8,171.4" fill="hsl(216,68%,41%)"/><polygon points="538.3,0.0 716.8,171.4 627.4,135.5" fill="hsl(216,68%,41%)"/><polygon points="730.9,0.0 859.1,0.0 826.6,160.8" fill="hsl(216,68%,33%)"/><polygon points="730.9,0.0 826.6,160.8 716.8,171.4" fill="hsl(216,68%,36%)"/><polygon points="859.1,0.0 973.2,0.0 996.8,96.6" fill="hsl(216,68%,31%)"/><polygon points="859.1,0.0 996.8,96.6 826.6,160.8" fill="hsl(216,68%,42%)"/><polygon points="973.2,0.0 1164.4,0.0 1124.7,111.3" fill="hsl(216,68%,36%)"/><polygon points="973.2,0.0 1124.7,111.3 996.8,96.6" fill="hsl(216,68%,42%)"/><polygon points="1164.4,0.0 1262.0,0.0 1341.3,99.8" fill="hsl(216,68%,34%)"/><polygon points="1164.4,0.0 1341.3,99.8 1124.7,111.3" fill="hsl(216,68%,34%)"/><polygon points="1262.0,0.0 1447.8,0.0 1462.9,141.1" fill="hsl(216,68%,40%)"/><polygon points="1262.0,0.0 1462.9,141.1 1341.3,99.8" fill="hsl(216,68%,45%)"/><polygon points="1447.8,0.0 1600.0,0.0 1600.0,117.1" fill="hsl(216,68%,41%)"/><polygon points="1447.8,0.0 1600.0,117.1 1462.9,141.1" fill="hsl(216,68%,42%)"/><polygon points="0.0,89.9 103.8,121.8 100.9,217.5" fill="hsl(216,68%,47%)"/><polygon points="0.0,89.9 100.9,217.5 0.0,261.4" fill="hsl(216,68%,47%)"/><polygon points="103.8,121.8 324.2,94.7 261.0,273.4" fill="hsl(216,68%,38%)"/><polygon points="103.8,121.8 261.0,273.4 100.9,217.5" fill="hsl(216,68%,44%)"/><polygon points="324.2,94.7 408.2,140.0 429.0,240.4" fill="hsl(216,68%,40%)"/><polygon points="324.2,94.7 429.0,240.4 261.0,273.4" fill="hsl(216,68%,37%)"/><polygon points="408.2,140.0 627.4,135.5 590.5,252.9" fill="hsl(216,68%,36%)"/><polygon points="408.2,140.0 590.5,252.9 429.0,240.4" fill="hsl(216,68%,41%)"/><polygon points="627.4,135.5 716.8,171.4 706.9,283.6" fill="hsl(216,68%,39%)"/><polygon points="627.4,135.5 706.9,283.6 590.5,252.9" fill="hsl(216,68%,47%)"/><polygon points="716.8,171.4 826.6,160.8 893.0,234.1" fill="hsl(216,68%,49%)"/><polygon points="716.8,171.4 893.0,234.1 706.9,283.6" fill="hsl(216,68%,43%)"/><polygon points="826.6,160.8 996.8,96.6 1025.8,259.4" fill="hsl(216,68%,48%)"/><polygon points="826.6,160.8 1025.8,259.4 893.0,234.1" fill="hsl(216,68%,51%)"/><polygon points="996.8,96.6 1124.7,111.3 1201.8,277.8" fill="hsl(216,68%,49%)"/><polygon points="996.8,96.6 1201.8,277.8 1025.8,259.4" fill="hsl(216,68%,42%)"/><polygon points="1124.7,111.3 1341.3,99.8 1287.5,300.4" fill="hsl(216,68%,38%)"/><polygon points="1124.7,111.3 1287.5,300.4 1201.8,277.8" fill="hsl(216,68%,40%)"/><polygon points="1341.3,99.8 1462.9,141.1 1415.7,249.8" fill="hsl(216,68%,38%)"/><polygon points="1341.3,99.8 1415.7,249.8 1287.5,300.4" fill="hsl(216,68%,40%)"/><polygon points="1462.9,141.1 1600.0,117.1 1600.0,280.3" fill="hsl(216,68%,44%)"/><polygon points="1462.9,141.1 1600.0,280.3 1415.7,249.8" fill="hsl(216,68%,50%)"/><polygon points="0.0,261.4 100.9,217.5 144.3,344.2" fill="hsl(216,68%,53%)"/><polygon points="0.0,261.4 144.3,344.2 0.0,354.4" fill="hsl(216,68%,50%)"/><polygon points="100.9,217.5 261.0,273.4 308.0,409.5" fill="hsl(216,68%,51%)"/><polygon points="100.9,217.5 308.0,409.5 144.3,344.2" fill="hsl(216,68%,55%)"/><polygon points="261.0,273.4 429.0,240.4 443.8,419.5" fill="hsl(216,68%,43%)"/><polygon points="261.0,273.4 443.8,419.5 308.0,409.5" fill="hsl(216,68%,53%)"/><polygon points="429.0,240.4 590.5,252.9 562.9,403.3" fill="hsl(216,68%,54%)"/><polygon points="429.0,240.4 562.9,403.3 443.8,419.5" fill="hsl(216,68%,54%)"/><polygon points="590.5,252.9 706.9,283.6 736.9,392.9" fill="hsl(216,68%,52%)"/><polygon points="590.5,252.9 736.9,392.9 562.9,403.3" fill="hsl(216,68%,50%)"/><polygon points="706.9,283.6 893.0,234.1 868.3,416.3" fill="hsl(216,68%,44%)"/><polygon points="706.9,283.6 868.3,416.3 736.9,392.9" fill="hsl(216,68%,54%)"/><polygon points="893.0,234.1 1025.8,259.4 1063.5,383.4" fill="hsl(216,68%,46%)"/><polygon points="893.0,234.1 1063.5,383.4 868.3,416.3" fill="hsl(216,68%,55%)"/><polygon points="1025.8,259.4 1201.8,277.8 1180.4,346.2" fill="hsl(216,68%,55%)"/><polygon points="1025.8,259.4 1180.4,346.2 1063.5,383.4" fill="hsl(216,68%,49%)"/><polygon points="1201.8,277.8 1287.5,300.4 1329.6,399.0" fill="hsl(216,68%,47%)"/><polygon points="1201.8,277.8 1329.6,399.0 1180.4,346.2" fill="hsl(216,68%,57%)"/><polygon points="1287.5,300.4 1415.7,249.8 1504.8,414.7" fill="hsl(216,68%,52%)"/><polygon points="1287.5,300.4 1504.8,414.7 1329.6,399.0" fill="hsl(216,68%,46%)"/><polygon points="1415.7,249.8 1600.0,280.3 1600.0,366.3" fill="hsl(216,68%,43%)"/><polygon points="1415.7,249.8 1600.0,366.3 1504.8,414.7" fill="hsl(216,68%,45%)"/><polygon points="0.0,354.4 144.3,344.2 162.6,471.3" fill="hsl(216,68%,60%)"/><polygon points="0.0,354.4 162.6,471.3 0.0,504.0" fill="hsl(216,68%,61%)"/><polygon points="144.3,344.2 308.0,409.5 287.0,484.4" fill="hsl(216,68%,50%)"/><polygon points="144.3,344.2 287.0,484.4 162.6,471.3" fill="hsl(216,68%,61%)"/><polygon points="308.0,409.5 443.8,419.5 397.4,474.6" fill="hsl(216,68%,61%)"/><polygon points="308.0,409.5 397.4,474.6 287.0,484.4" fill="hsl(216,68%,59%)"/><polygon points="443.8,419.5 562.9,403.3 609.1,480.9" fill="hsl(216,68%,53%)"/><polygon points="443.8,419.5 609.1,480.9 397.4,474.6" fill="hsl(216,68%,57%)"/><polygon points="562.9,403.3 736.9,392.9 701.6,504.5" fill="hsl(216,68%,50%)"/><polygon points="562.9,403.3 701.6,504.5 609.1,480.9" fill="hsl(216,68%,50%)"/><polygon points="736.9,392.9 868.3,416.3 910.5,476.5" fill="hsl(216,68%,61%)"/><polygon points="736.9,392.9 910.5,476.5 701.6,504.5" fill="hsl(216,68%,59%)"/><polygon points="868.3,416.3 1063.5,383.4 1013.0,518.7" fill="hsl(216,68%,55%)"/><polygon points="868.3,416.3 1013.0,518.7 910.5,476.5" fill="hsl(216,68%,63%)"/><polygon points="1063.5,383.4 1180.4,346.2 1202.7,543.0" fill="hsl(216,68%,54%)"/><polygon points="1063.5,383.4 1202.7,543.0 1013.0,518.7" fill="hsl(216,68%,62%)"/><polygon points="1180.4,346.2 1329.6,399.0 1346.2,494.3" fill="hsl(216,68%,59%)"/><polygon points="1180.4,346.2 1346.2,494.3 1202.7,543.0" fill="hsl(216,68%,53%)"/><polygon points="1329.6,399.0 1504.8,414.7 1445.9,501.6" fill="hsl(216,68%,51%)"/><polygon points="1329.6,399.0 1445.9,501.6 1346.2,494.3" fill="hsl(216,68%,54%)"/><polygon points="1504.8,414.7 1600.0,366.3 1600.0,548.9" fill="hsl(216,68%,51%)"/><polygon points="1504.8,414.7 1600.0,548.9 1445.9,501.6" fill="hsl(216,68%,58%)"/><polygon points="0.0,504.0 162.6,471.3 109.9,613.7" fill="hsl(216,68%,58%)"/><polygon points="0.0,504.0 109.9,613.7 0.0,684.1" fill="hsl(216,68%,62%)"/><polygon points="162.6,471.3 287.0,484.4 263.6,618.9" fill="hsl(216,68%,56%)"/><polygon points="162.6,471.3 263.6,618.9 109.9,613.7" fill="hsl(216,68%,69%)"/><polygon points="287.0,484.4 397.4,474.6 434.8,650.9" fill="hsl(216,68%,59%)"/><polygon points="287.0,484.4 434.8,650.9 263.6,618.9" fill="hsl(216,68%,62%)"/><polygon points="397.4,474.6 609.1,480.9 557.7,598.2" fill="hsl(216,68%,62%)"/><polygon points="397.4,474.6 557.7,598.2 434.8,650.9" fill="hsl(216,68%,69%)"/><polygon points="609.1,480.9 701.6,504.5 719.0,631.1" fill="hsl(216,68%,60%)"/><polygon points="609.1,480.9 719.0,631.1 557.7,598.2" fill="hsl(216,68%,69%)"/><polygon points="701.6,504.5 910.5,476.5 879.5,683.6" fill="hsl(216,68%,61%)"/><polygon points="701.6,504.5 879.5,683.6 719.0,631.1" fill="hsl(216,68%,63%)"/><polygon points="910.5,476.5 1013.0,518.7 1037.6,644.3" fill="hsl(216,68%,61%)"/><polygon points="910.5,476.5 1037.6,644.3 879.5,683.6" fill="hsl(216,68%,56%)"/><polygon points="1013.0,518.7 1202.7,543.0 1175.6,658.7" fill="hsl(216,68%,60%)"/><polygon points="1013.0,518.7 1175.6,658.7 1037.6,644.3" fill="hsl(216,68%,58%)"/><polygon points="1202.7,543.0 1346.2,494.3 1263.7,678.8" fill="hsl(216,68%,54%)"/><polygon points="1202.7,543.0 1263.7,678.8 1175.6,658.7" fill="hsl(216,68%,67%)"/><polygon points="1346.2,494.3 1445.9,501.6 1483.1,676.6" fill="hsl(216,68%,56%)"/><polygon points="1346.2,494.3 1483.1,676.6 1263.7,678.8" fill="hsl(216,68%,63%)"/><polygon points="1445.9,501.6 1600.0,548.9 1600.0,669.7" fill="hsl(216,68%,64%)"/><polygon points="1445.9,501.6 1600.0,669.7 1483.1,676.6" fill="hsl(216,68%,64%)"/><polygon points="0.0,684.1 109.9,613.7 135.2,735.7" fill="hsl(216,68%,65%)"/><polygon points="0.0,684.1 135.2,735.7 0.0,761.7" fill="hsl(216,68%,69%)"/><polygon points="109.9,613.7 263.6,618.9 304.6,732.0" fill="hsl(216,68%,68%)"/><polygon points="109.9,613.7 304.6,732.0 135.2,735.7" fill="hsl(216,68%,73%)"/><polygon points="263.6,618.9 434.8,650.9 392.3,745.2" fill="hsl(216,68%,62%)"/><polygon points="263.6,618.9 392.3,745.2 304.6,732.0" fill="hsl(216,68%,70%)"/><polygon points="434.8,650.9 557.7,598.2 547.4,757.0" fill="hsl(216,68%,64%)"/><polygon points="434.8,650.9 547.4,757.0 392.3,745.2" fill="hsl(216,68%,66%)"/><polygon points="557.7,598.2 719.0,631.1 681.7,726.4" fill="hsl(216,68%,71%)"/><polygon points="557.7,598.2 681.7,726.4 547.4,757.0" fill="hsl(216,68%,69%)"/><polygon points="719.0,631.1 879.5,683.6 837.2,735.6" fill="hsl(216,68%,68%)"/><polygon points="719.0,631.1 837.2,735.6 681.7,726.4" fill="hsl(216,68%,73%)"/><polygon points="879.5,683.6 1037.6,644.3 1004.3,728.7" fill="hsl(216,68%,73%)"/><polygon points="879.5,683.6 1004.3,728.7 837.2,735.6" fill="hsl(216,68%,68%)"/><polygon points="1037.6,644.3 1175.6,658.7 1201.8,781.7" fill="hsl(216,68%,69%)"/><polygon points="1037.6,644.3 1201.8,781.7 1004.3,728.7" fill="hsl(216,68%,69%)"/><polygon points="1175.6,658.7 1263.7,678.8 1273.3,749.1" fill="hsl(216,68%,67%)"/><polygon points="1175.6,658.7 1273.3,749.1 1201.8,781.7" fill="hsl(216,68%,72%)"/><polygon points="1263.7,678.8 1483.1,676.6 1439.0,759.2" fill="hsl(216,68%,67%)"/><polygon points="1263.7,678.8 1439.0,759.2 1273.3,749.1" fill="hsl(216,68%,70%)"/><polygon points="1483.1,676.6 1600.0,669.7 1600.0,737.5" fill="hsl(216,68%,67%)"/><polygon points="1483.1,676.6 1600.0,737.5 1439.0,759.2" fill="hsl(216,68%,75%)"/><polygon points="0.0,761.7 135.2,735.7 181.0,900.0" fill="hsl(216,68%,76%)"/><polygon points="0.0,761.7 181.0,900.0 0.0,900.0" fill="hsl(216,68%,81%)"/><polygon points="135.2,735.7 304.6,732.0 341.1,900.0" fill="hsl(216,68%,80%)"/><polygon points="135.2,735.7 341.1,900.0 181.0,900.0" fill="hsl(216,68%,72%)"/><polygon points="304.6,732.0 392.3,745.2 432.9,900.0" fill="hsl(216,68%,74%)"/><polygon points="304.6,732.0 432.9,900.0 341.1,900.0" fill="hsl(216,68%,82%)"/><polygon points="392.3,745.2 547.4,757.0 580.2,900.0" fill="hsl(216,68%,78%)"/><polygon points="392.3,745.2 580.2,900.0 432.9,900.0" fill="hsl(216,68%,70%)"/><polygon points="547.4,757.0 681.7,726.4 685.1,900.0" fill="hsl(216,68%,68%)"/><polygon points="547.4,757.0 685.1,900.0 580.2,900.0" fill="hsl(216,68%,75%)"/><polygon points="681.7,726.4 837.2,735.6 832.2,900.0" fill="hsl(216,68%,68%)"/><polygon points="681.7,726.4 832.2,900.0 685.1,900.0" fill="hsl(216,68%,72%)"/><polygon points="837.2,735.6 1004.3,728.7 1002.2,900.0" fill="hsl(216,68%,68%)"/><polygon points="837.2,735.6 1002.2,900.0 832.2,900.0" fill="hsl(216,68%,78%)"/><polygon points="1004.3,728.7 1201.8,781.7 1139.7,900.0" fill="hsl(216,68%,78%)"/><polygon points="1004.3,728.7 1139.7,900.0 1002.2,900.0" fill="hsl(216,68%,81%)"/><polygon points="1201.8,781.7 1273.3,749.1 1342.6,900.0" fill="hsl(216,68%,69%)"/><polygon points="1201.8,781.7 1342.6,900.0 1139.7,900.0" fill="hsl(216,68%,79%)"/><polygon points="1273.3,749.1 1439.0,759.2 1420.1,900.0" fill="hsl(216,68%,76%)"/><polygon points="1273.3,749.1 1420.1,900.0 1342.6,900.0" fill="hsl(216,68%,70%)"/><polygon points="1439.0,759.2 1600.0,737.5 1600.0,900.0" fill="hsl(216,68%,79%)"/><polygon points="1439.0,759.2 1600.0,900.0 1420.1,900.0" fill="hsl(216,68%,82%)"/></svg>